<svg width="120" height="33" viewBox="0 0 120 33" fill="none" xmlns="http://www.w3.org/2000/svg">
<path fill-rule="evenodd" clip-rule="evenodd" d="M105.295 26.7884V19.6865H116.168V26.7884H120C120 23.332 120 19.3177 120 15.8613H108.414L120 10.4675V6.24682L105.295 13.0921V0H101.463C101.463 8.92958 101.463 17.8588 101.463 26.7884H105.295ZM47.1742 22.9628V10.0372H51.5739V10.0368C53.3618 10.0368 54.9806 10.7603 56.152 11.9297C57.3235 13.0991 58.0481 14.7152 58.0481 16.5C58.0481 18.2849 57.3235 19.9009 56.152 21.0703C54.9806 22.2397 53.3618 22.9632 51.5739 22.9632V22.9628C49.6808 22.9628 49.0673 22.9628 47.1742 22.9628ZM47.1742 26.7884C49.0673 26.7884 49.6808 26.7884 51.5739 26.7884V26.7881C54.4194 26.7881 56.9959 25.6363 58.861 23.7747C60.7259 21.913 61.8796 19.3406 61.8796 16.5C61.8796 13.6597 60.7262 11.0873 58.861 9.22534C56.9959 7.36372 54.4197 6.21192 51.5739 6.21192V6.21159C48.4035 6.21159 46.5127 6.21159 43.3424 6.21159V33H47.1742V26.7884ZM25.9392 22.9628V10.0372H30.339V10.0368C32.1269 10.0368 33.7457 10.7603 34.9171 11.9297C36.0885 13.0991 36.8132 14.7152 36.8132 16.5C36.8132 18.2849 36.0885 19.9009 34.9171 21.0703C33.7457 22.2397 32.1269 22.9632 30.339 22.9632V22.9628C28.4459 22.9628 27.8323 22.9628 25.9392 22.9628ZM25.9392 26.7884C27.8323 26.7884 28.4459 26.7884 30.339 26.7884V26.7881C33.1844 26.7881 35.761 25.6363 37.6258 23.7747C39.4909 21.913 40.6447 19.3406 40.6447 16.5C40.6447 13.6597 39.4909 11.0873 37.6258 9.22534C35.761 7.36372 33.1844 6.21192 30.339 6.21192V6.21159C27.1686 6.21159 25.2775 6.21159 22.1071 6.21159V33H25.9392V26.7884ZM97.8929 6.21159C91.7139 6.21159 85.5346 6.21159 79.3557 6.21159C79.3557 13.0705 79.3557 19.9295 79.3557 26.7884H83.1875V10.0372H94.0611V26.7884H97.8929C97.8929 19.9295 97.8929 13.0705 97.8929 6.21159ZM18.5373 26.7884C12.3583 26.7884 6.17931 26.7884 0 26.7884C0 24.087 0 21.3857 0 18.6843L14.7054 11.839V10.0372H2.45634V6.21159H18.5373C18.5373 13.0705 18.5373 19.9295 18.5373 26.7884ZM71.954 0H75.7858V3.86414H71.954V0ZM71.954 6.21159H75.7858V26.7884H71.954V6.21159ZM64.5523 0H68.3841V26.7884H64.5523V0ZM3.83215 21.1215L14.7054 16.0597V22.9628H3.83215V21.1215Z" fill="white"/>
</svg>
