<?xml version="1.0" encoding="UTF-8" standalone="no"?>
<!-- Generator: Adobe Illustrator 24.2.1, SVG Export Plug-In . SVG Version: 6.00 Build 0)  -->

<svg
   version="1.1"
   id="Layer_1"
   x="0px"
   y="0px"
   viewBox="0 0 374.10416 39.45"
   xml:space="preserve"
   sodipodi:docname="b1c06c9282634bf2a2aabe650ec08f2c.svg"
   width="374.10416"
   height="39.450001"
   xmlns:inkscape="http://www.inkscape.org/namespaces/inkscape"
   xmlns:sodipodi="http://sodipodi.sourceforge.net/DTD/sodipodi-0.dtd"
   xmlns="http://www.w3.org/2000/svg"
   xmlns:svg="http://www.w3.org/2000/svg"><defs
   id="defs35" /><sodipodi:namedview
   id="namedview33"
   pagecolor="#ffffff"
   bordercolor="#666666"
   borderopacity="1.0"
   inkscape:pageshadow="2"
   inkscape:pageopacity="0.0"
   inkscape:pagecheckerboard="0" />
<style
   type="text/css"
   id="style2">
	.st0{fill:#FF7D00;}
	.st1{fill:#FFFFFF;}
</style>
<g
   id="g30"
   transform="translate(0.00415693,-0.02)">
	<path
   class="st0"
   d="m 20.5,14.9 -1.09,6.57 h 7.25 l -0.87,4.92 c -0.14,0.77 -0.66,3.45 -1.38,4.06 -0.71,0.55 -1.54,0.61 -2.21,0.61 h -3.76 c -2.1,0 -3.95,-0.5 -4.95,-2.65 -0.98,-2.27 -0.23,-6.86 0.14,-8.96 0.38,-2.16 1.11,-6 2.82,-8.15 1.7,-2.1 4.1,-3.21 7.25,-3.21 H 37.92 L 42.91,0.11 H 19.48 c -1.05,0 -6.2,0.05 -10.19,2.65 -5.67,3.65 -7.43,10.78 -8.51,16.91 -0.9,5.08 -1.75,12.1 1.85,15.86 2.1,2.21 6,3.26 9.15,3.26 h 18.29 c 1.6,0 3.24,-0.5 4.38,-1.33 0.76,-0.55 2.22,-1.93 2.67,-4.48 l 2.03,-11.51 v 0 l 0.13,-0.72 0.74,-4.2 v 0 l 0.29,-1.65 z"
   id="path4" />
	<path
   class="st0"
   d="m 62.69,14.9 -1.09,6.57 h 7.25 l -0.87,4.92 c -0.14,0.77 -0.66,3.45 -1.38,4.06 -0.71,0.55 -1.54,0.61 -2.21,0.61 h -3.76 c -2.1,0 -3.95,-0.5 -4.95,-2.65 -0.98,-2.27 -0.23,-6.86 0.14,-8.96 0.38,-2.16 1.11,-6 2.82,-8.15 1.7,-2.1 4.1,-3.21 7.25,-3.21 H 80.11 L 85.1,0.11 H 61.68 c -1.05,0 -6.2,0.05 -10.19,2.65 -5.67,3.65 -7.43,10.78 -8.51,16.91 -0.9,5.08 -1.75,12.1 1.85,15.86 2.1,2.21 6,3.26 9.15,3.26 h 18.29 c 1.6,0 3.24,-0.5 4.38,-1.33 0.76,-0.55 2.22,-1.93 2.67,-4.48 l 2.03,-11.51 v 0 l 0.13,-0.72 0.74,-4.2 v 0 l 0.29,-1.65 z"
   id="path6" />
	<g
   id="g28">
		<path
   class="st1"
   d="M 110.78,38.81 109.92,28.4 H 97.73 L 92.24,38.81 H 81.78 L 102.76,0.72 h 14.02 l 3.96,38.09 z M 108.55,8.99 h -1.17 l -5.94,11.94 h 7.92 z"
   id="path8" />
		<path
   class="st1"
   d="m 122.62,38.81 8.03,-38.09 h 27.02 l -3.1,7.92 h -15.85 l -1.73,8.18 h 14.17 l -3.1,7.77 h -12.7 l -3.05,14.22 z"
   id="path10" />
		<path
   class="st1"
   d="M 151.47,38.81 159.5,0.72 h 27.02 l -3.1,7.92 h -15.85 l -1.73,8.18 h 14.17 l -3.1,7.77 h -12.7 l -3.05,14.22 z"
   id="path12" />
		<path
   class="st1"
   d="m 180.88,38.81 8.03,-38.09 h 9.75 l -8.08,38.09 z"
   id="path14" />
		<path
   class="st1"
   d="m 207.59,30.73 h 17.63 l -3.45,8.08 h -25.6 L 204.2,0.72 h 9.75 z"
   id="path16" />
		<path
   class="st1"
   d="m 225.78,38.81 8.03,-38.09 h 9.75 l -8.08,38.09 z"
   id="path18" />
		<path
   class="st1"
   d="M 266.41,38.81 265.55,28.4 h -12.19 l -5.49,10.41 H 237.41 L 258.39,0.72 h 14.02 l 3.96,38.09 z M 264.17,8.99 H 263 l -5.94,11.94 h 7.92 z"
   id="path20" />
		<path
   class="st1"
   d="m 312.58,8.58 h -10.26 l -6.45,30.22 h -9.7 l 6.4,-30.22 h -10.92 l 2.89,-7.87 h 30.78 z"
   id="path22" />
		<path
   class="st1"
   d="m 335.79,38.81 h -26.31 l 8.03,-38.09 h 27.48 l -3.1,7.97 h -16.3 l -1.47,6.96 h 14.73 l -3,7.67 h -13.36 l -1.57,7.42 h 18.23 z"
   id="path24" />
		<path
   class="st1"
   d="m 369.77,25.8 c -0.03,1.08 -0.16,2.16 -0.38,3.23 -0.22,1.07 -0.54,2.09 -0.97,3.07 -0.42,0.98 -0.94,1.89 -1.55,2.72 -0.61,0.83 -1.3,1.52 -2.08,2.06 -2.3,1.73 -6.27,2.59 -11.89,2.59 -1.39,0 -2.74,-0.05 -4.04,-0.15 -1.3,-0.1 -2.52,-0.24 -3.66,-0.41 -1.14,-0.17 -2.18,-0.35 -3.12,-0.53 -0.94,-0.18 -1.74,-0.38 -2.39,-0.58 l 1.12,-7.26 c 0.54,0.1 1.24,0.23 2.11,0.38 0.86,0.15 1.8,0.29 2.82,0.41 1.02,0.12 2.06,0.22 3.12,0.3 1.07,0.08 2.04,0.13 2.92,0.13 1.73,0 3.06,-0.08 3.99,-0.25 0.93,-0.17 1.58,-0.39 1.96,-0.66 0.47,-0.34 0.85,-0.8 1.12,-1.4 0.27,-0.59 0.44,-1.25 0.51,-1.96 0.07,-0.88 -0.14,-1.56 -0.61,-2.03 -0.3,-0.27 -0.77,-0.55 -1.4,-0.84 -0.63,-0.29 -1.34,-0.59 -2.13,-0.91 -0.8,-0.32 -1.63,-0.67 -2.51,-1.04 -0.88,-0.37 -1.73,-0.76 -2.54,-1.17 -0.81,-0.41 -1.57,-0.84 -2.26,-1.29 -0.69,-0.46 -1.23,-0.94 -1.6,-1.45 -0.47,-0.61 -0.85,-1.37 -1.12,-2.29 -0.27,-0.91 -0.39,-2.01 -0.36,-3.3 0.03,-0.91 0.15,-1.86 0.36,-2.84 0.2,-0.98 0.52,-1.96 0.94,-2.92 0.42,-0.97 0.96,-1.86 1.6,-2.69 0.64,-0.83 1.4,-1.55 2.29,-2.16 1.08,-0.78 2.57,-1.4 4.47,-1.85 1.9,-0.46 4.45,-0.69 7.67,-0.69 1.18,0 2.36,0.03 3.53,0.1 1.17,0.07 2.28,0.16 3.33,0.28 1.05,0.12 2.01,0.25 2.87,0.38 0.86,0.14 1.6,0.25 2.21,0.36 l -1.22,7.57 c -1.22,-0.17 -2.78,-0.36 -4.67,-0.56 -1.89,-0.2 -3.96,-0.3 -6.2,-0.3 -1.63,0 -2.88,0.1 -3.76,0.3 -0.88,0.2 -1.51,0.44 -1.88,0.71 -0.41,0.34 -0.73,0.81 -0.96,1.4 -0.24,0.59 -0.37,1.21 -0.41,1.85 -0.07,0.68 0.07,1.2 0.41,1.57 0.37,0.47 1.14,0.96 2.31,1.45 1.17,0.49 2.44,1 3.81,1.52 1.37,0.53 2.69,1.09 3.96,1.7 1.27,0.61 2.21,1.27 2.82,1.98 0.47,0.54 0.86,1.28 1.14,2.21 0.28,0.92 0.39,2.01 0.32,3.26 z"
   id="path26" />
	</g>
</g>
</svg>
